<svg xmlns="http://www.w3.org/2000/svg"  viewBox="0 0 48 48" width="96px" height="96px" baseProfile="basic"><linearGradient id="6r5j-zjqg_BcFO9PvALbpa" x1="9" x2="56.447" y1="24" y2="24" gradientUnits="userSpaceOnUse"><stop offset="0" stop-color="#962aff"/><stop offset=".781" stop-color="#be85ff"/><stop offset="1" stop-color="#c99fff"/></linearGradient><path fill="url(#6r5j-zjqg_BcFO9PvALbpa)" d="M36.998,40c-0.32,0-0.645-0.076-0.946-0.239l-26-14C9.404,25.412,9,24.735,9,24	s0.404-1.412,1.052-1.761l26-14c0.972-0.525,2.186-0.16,2.709,0.812s0.16,2.186-0.812,2.709L15.219,24l22.729,12.239	c0.973,0.523,1.336,1.736,0.812,2.709C38.399,39.619,37.71,40,36.998,40z"/><path fill="#8120f2" d="M36.998,40c0.712,0,1.401-0.381,1.763-1.052c0.523-0.973,0.16-2.186-0.812-2.709 l-6.268-3.375c-0.928,0.961-1.597,2.171-1.898,3.521l6.269,3.376C36.354,39.924,36.678,40,36.998,40z" opacity=".4"/><path fill="#8120f2" d="M36.998,40c0.712,0,1.401-0.381,1.763-1.052c0.523-0.973,0.16-2.186-0.812-2.709 l-7.353-3.959c-0.889,0.994-1.548,2.193-1.899,3.52l7.356,3.961C36.354,39.924,36.678,40,36.998,40z" opacity=".1"/><path fill="#8120f2" d="M36.998,40c0.712,0,1.401-0.381,1.763-1.052c0.523-0.973,0.16-2.186-0.812-2.709 l-6.991-3.765c-0.901,0.984-1.562,2.186-1.899,3.52l6.994,3.766C36.354,39.924,36.678,40,36.998,40z" opacity=".2"/><path fill="#8120f2" d="M9,24c0,0.735,0.404,1.412,1.052,1.761l6.268,3.375 c0.928-0.961,1.597-2.171,1.898-3.521L15.219,24l2.999-1.615c-0.301-1.35-0.97-2.56-1.898-3.521l-6.268,3.375 C9.404,22.588,9,23.265,9,24z" opacity=".4"/><path fill="#8120f2" d="M9,24c0,0.735,0.404,1.412,1.052,1.761l7.353,3.959 c0.889-0.994,1.548-2.193,1.899-3.52L15.219,24l4.086-2.2c-0.352-1.327-1.01-2.526-1.899-3.52l-7.353,3.959 C9.404,22.588,9,23.265,9,24z" opacity=".1"/><path fill="#8120f2" d="M9,24c0,0.735,0.404,1.412,1.052,1.761l6.991,3.765 c0.901-0.985,1.562-2.187,1.899-3.521L15.219,24l3.723-2.005c-0.337-1.334-0.998-2.536-1.899-3.521l-6.991,3.765 C9.404,22.588,9,23.265,9,24z" opacity=".2"/><path fill="#8120f2" d="M9,24c0,0.735,0.404,1.412,1.052,1.761l6.63,3.57c0.914-0.973,1.579-2.179,1.899-3.521 L15.219,24l3.361-1.81c-0.32-1.342-0.985-2.547-1.899-3.521l-6.63,3.57C9.404,22.588,9,23.265,9,24z" opacity=".3"/><path fill="#8120f2" d="M36.998,40c0.712,0,1.401-0.381,1.763-1.052c0.523-0.973,0.16-2.186-0.812-2.709 l-6.63-3.57c-0.914,0.973-1.579,2.179-1.899,3.521l6.632,3.571C36.354,39.924,36.678,40,36.998,40z" opacity=".3"/><g><path fill="#8120f2" d="M36.998,7.999c0.712,0,1.401,0.381,1.763,1.052c0.523,0.973,0.16,2.186-0.812,2.709 l-6.268,3.375c-0.928-0.961-1.597-2.171-1.898-3.521l6.269-3.376C36.354,8.075,36.678,7.999,36.998,7.999z" opacity=".4"/><path fill="#8120f2" d="M36.998,7.999c0.712,0,1.401,0.381,1.763,1.052c0.523,0.973,0.16,2.186-0.812,2.709 l-7.353,3.959c-0.889-0.994-1.548-2.193-1.899-3.52l7.356-3.961C36.354,8.075,36.678,7.999,36.998,7.999z" opacity=".1"/><path fill="#8120f2" d="M36.998,7.999c0.712,0,1.401,0.381,1.763,1.052c0.523,0.973,0.16,2.186-0.812,2.709 l-6.991,3.765c-0.901-0.984-1.562-2.186-1.899-3.52l6.994-3.766C36.354,8.075,36.678,7.999,36.998,7.999z" opacity=".2"/><path fill="#8120f2" d="M36.998,7.999c0.712,0,1.401,0.381,1.763,1.052c0.523,0.973,0.16,2.186-0.812,2.709 l-6.63,3.57c-0.914-0.973-1.579-2.179-1.899-3.521l6.632-3.571C36.354,8.075,36.678,7.999,36.998,7.999z" opacity=".3"/></g><g><path fill="#972dff" d="M9.696,26.421l5.664,3.05c1.453-1.16,2.434-2.884,2.608-4.842L16.801,24l1.167-0.629 c-0.175-1.958-1.155-3.682-2.608-4.842l-5.664,3.05C7.77,22.615,7.772,25.385,9.696,26.421z" opacity=".4"/><path fill="#972dff" d="M32.64,15.471l5.664-3.05c3.202-1.724,0.588-6.57-2.607-4.842l-5.665,3.05 C30.206,12.587,31.187,14.311,32.64,15.471z" opacity=".4"/><path fill="#972dff" d="M30.032,37.371l5.665,3.05c3.162,1.707,5.844-3.101,2.607-4.842l-5.664-3.05 C31.187,33.689,30.206,35.413,30.032,37.371z" opacity=".4"/><path fill="#972dff" d="M30,38c0,0.071,0.009,0.141,0.011,0.211l5.33,2.87 c4.021,2.171,7.435-3.948,3.318-6.163l-5.33-2.87C31.334,33.281,30,35.482,30,38z" opacity=".3"/><path fill="#972dff" d="M30,10c0,2.518,1.334,4.719,3.329,5.952l5.33-2.87 c4.072-2.193,0.747-8.362-3.318-6.163l-5.327,2.868C30.012,9.858,30,9.928,30,10z" opacity=".3"/><path fill="#972dff" d="M9.341,27.082l5.331,2.87C16.666,28.719,18,26.518,18,24s-1.334-4.719-3.329-5.952 l-5.331,2.87C6.888,22.238,6.893,25.763,9.341,27.082z" opacity=".3"/><g><path fill="#972dff" d="M30,38c0,0.378,0.038,0.747,0.096,1.109l4.889,2.633 c4.881,2.634,9.026-4.795,4.029-7.484l-4.892-2.634C31.693,32.722,30,35.161,30,38z" opacity=".2"/><path fill="#972dff" d="M30,10c0,2.839,1.693,5.278,4.122,6.376l4.892-2.634 c4.942-2.662,0.906-10.153-4.029-7.484L30.097,8.89C30.039,9.252,30,9.621,30,10z" opacity=".2"/><path fill="#972dff" d="M8.985,27.742l4.892,2.634C16.307,29.278,18,26.839,18,24s-1.693-5.278-4.122-6.376 l-4.892,2.634C6.005,21.861,6.014,26.141,8.985,27.742z" opacity=".2"/></g><g><path fill="#972dff" d="M30,38c0,0.724,0.11,1.422,0.314,2.078l4.316,2.324 c5.741,3.097,10.617-5.643,4.74-8.805l-4.308-2.32C32.14,32.119,30,34.807,30,38z" opacity=".1"/><path fill="#972dff" d="M30,10c0,3.193,2.14,5.881,5.062,6.722l4.308-2.32 c5.812-3.131,1.064-11.944-4.74-8.805l-4.299,2.315C30.123,8.573,30,9.271,30,10z" opacity=".1"/><path fill="#972dff" d="M8.63,28.402l4.308,2.32C15.86,29.881,18,27.193,18,24s-2.14-5.881-5.062-6.722 l-4.308,2.32C5.123,21.484,5.135,26.519,8.63,28.402z" opacity=".1"/></g></g><linearGradient id="6r5j-zjqg_BcFO9PvALbpb" x1="-8.783" x2="31.217" y1="24" y2="24" gradientUnits="userSpaceOnUse"><stop offset="0" stop-color="#4eaefe" stop-opacity=".2"/><stop offset="1" stop-color="#41a2fe" stop-opacity=".4"/></linearGradient><path fill="url(#6r5j-zjqg_BcFO9PvALbpb)" d="M44,10c0,3.866-3.134,7-7,7s-7-3.134-7-7	s3.134-7,7-7S44,6.134,44,10z M37,31c-3.866,0-7,3.134-7,7s3.134,7,7,7s7-3.134,7-7S40.866,31,37,31z M11,17c-3.866,0-7,3.134-7,7	s3.134,7,7,7s7-3.134,7-7S14.866,17,11,17z"/><linearGradient id="6r5j-zjqg_BcFO9PvALbpc" x1="26.517" x2="22.715" y1="43.362" y2="3.543" gradientUnits="userSpaceOnUse"><stop offset="0" stop-color="#71b5ff" stop-opacity=".4"/><stop offset="1" stop-color="#fff" stop-opacity=".2"/></linearGradient><path fill="url(#6r5j-zjqg_BcFO9PvALbpc)" d="M37,3.5c3.584,0,6.5,2.916,6.5,6.5	s-2.916,6.5-6.5,6.5s-6.5-2.916-6.5-6.5S33.416,3.5,37,3.5 M11,17.5c3.584,0,6.5,2.916,6.5,6.5s-2.916,6.5-6.5,6.5	S4.5,27.584,4.5,24S7.416,17.5,11,17.5 M37,31.5c3.584,0,6.5,2.916,6.5,6.5s-2.916,6.5-6.5,6.5s-6.5-2.916-6.5-6.5	S33.416,31.5,37,31.5 M37,3c-3.866,0-7,3.134-7,7s3.134,7,7,7s7-3.134,7-7S40.866,3,37,3L37,3z M11,17c-3.866,0-7,3.134-7,7	s3.134,7,7,7c3.866,0,7-3.134,7-7S14.866,17,11,17L11,17z M37,31c-3.866,0-7,3.134-7,7s3.134,7,7,7s7-3.134,7-7S40.866,31,37,31	L37,31z"/></svg>